            <svg
              width="19"
              height="20"
              viewBox="0 0 20 21"
              fill="none"
              xmlns="http://www.w3.org/2000/svg"
            >
              <g clipPath="url(#clip0_32_1254)">
                <path
                  d="M19.875 10.7266C19.875 16.2539 16.0898 20.1875 10.5 20.1875C5.14062 20.1875 0.8125 15.8594 0.8125 10.5C0.8125 5.14062 5.14062 0.8125 10.5 0.8125C13.1094 0.8125 15.3047 1.76953 16.9961 3.34766L14.3594 5.88281C10.9102 2.55469 4.49609 5.05469 4.49609 10.5C4.49609 13.8789 7.19531 16.6172 10.5 16.6172C14.3359 16.6172 15.7734 13.8672 16 12.4414H10.5V9.10938H19.7227C19.8125 9.60547 19.875 10.082 19.875 10.7266Z"
                  fill="#EF4444"
                />
              </g>
              <defs>
                <clipPath id="clip0_32_1254">
                  <path d="M0.8125 0.5H19.875V20.5H0.8125V0.5Z" fill="#fff" />
                </clipPath>
              </defs>
            </svg>
            